<svg width="1507" height="1358" viewBox="0 0 1507 1358" fill="none" xmlns="http://www.w3.org/2000/svg">
<path d="M1 1252.8L344.14 1040.66C382.536 1016.92 401.235 971.126 390.426 927.298L337.317 711.944C325.586 664.376 348.645 615.071 392.674 593.581L536.161 523.546C558.135 512.82 575.627 494.695 585.565 472.354L662.474 299.463C681.955 255.67 728.842 230.863 776.007 239.393L1196.96 315.531C1242.04 323.685 1287.15 301.379 1308.04 260.603L1405.79 69.7506C1426.94 28.4559 1472.89 6.16604 1518.41 15.1141L1732.63 57.2191" stroke="black" stroke-width="1.4" stroke-linejoin="round"/>
<path d="M49.1845 1305L392.324 1092.86C430.72 1069.12 449.419 1023.33 438.611 979.498L385.502 764.144C373.771 716.576 396.83 667.271 440.858 645.781L584.345 575.746C606.319 565.02 623.812 546.895 633.75 524.554L710.659 351.663C730.139 307.87 777.026 283.063 824.191 291.593L1245.15 367.731C1290.23 375.885 1335.34 353.579 1356.22 312.803L1453.97 121.951C1475.13 80.6559 1521.07 58.366 1566.6 67.314L1780.82 109.419" stroke="black" stroke-width="1.4" stroke-linejoin="round"/>
<path d="M97.369 1357.2L440.509 1145.06C478.905 1121.32 497.604 1075.53 486.795 1031.7L433.686 816.344C421.955 768.775 445.014 719.471 489.043 697.981L632.53 627.946C654.504 617.22 671.996 599.095 681.934 576.754L758.843 403.863C778.324 360.07 825.211 335.263 872.376 343.793L1293.33 419.931C1338.41 428.085 1383.52 405.779 1404.41 365.003L1502.16 174.15C1523.31 132.856 1569.26 110.566 1614.78 119.514L1829 161.619" stroke="black" stroke-width="1.4" stroke-linejoin="round"/>
</svg>
