<svg width="1419" height="1566" viewBox="0 0 1419 1566" fill="none" xmlns="http://www.w3.org/2000/svg">
<path d="M1051.17 1507.28L840.61 1253.32C809.255 1215.5 808.64 1160.9 839.136 1122.38L913.932 1027.91C946.655 986.586 943.282 927.311 906.081 889.962L824.202 807.758C807.001 790.489 796.412 767.728 794.284 743.447L782.721 611.549C778.817 567.021 746.898 529.968 703.439 519.515L334.755 430.837C293.512 420.917 262.427 386.942 256.202 344.982L233.574 192.445C227.276 149.992 195.547 115.767 153.691 106.279L-35.2703 63.4459" stroke="#A8EB12" stroke-width="1.4" stroke-linejoin="round"/>
<path d="M1006.01 1539.7L795.449 1285.74C764.094 1247.92 763.479 1193.32 793.975 1154.8L868.771 1060.34C901.494 1019.01 898.121 959.732 860.92 922.384L779.041 840.179C761.84 822.911 751.251 800.149 749.123 775.869L737.56 643.97C733.656 599.443 701.737 562.389 658.278 551.936L289.594 463.258C248.351 453.338 217.266 419.363 211.041 377.403L188.413 224.867C182.115 182.413 150.386 148.189 108.53 138.701L-80.4313 95.8671" stroke="#A8EB12" stroke-width="1.4" stroke-linejoin="round"/>
<path d="M972.171 1542.9L761.615 1288.93C730.259 1251.11 729.645 1196.51 760.141 1158L834.937 1063.53C867.66 1022.2 864.286 962.926 827.085 925.578L745.207 843.374C728.006 826.105 717.417 803.343 715.289 779.063L703.726 647.164C699.822 602.637 667.903 565.583 624.444 555.13L255.76 466.452C214.517 456.532 183.431 422.557 177.207 380.597L154.579 228.061C148.281 185.607 116.552 151.383 74.696 141.895L-114.266 99.0612" stroke="#A8EB12" stroke-width="1.4" stroke-linejoin="round"/>
</svg>
