<svg width="920" height="817" viewBox="0 0 920 817" fill="none" xmlns="http://www.w3.org/2000/svg">
<g filter="url(#filter0_d_7_189)">
<mask id="path-1-outside-1_7_189" maskUnits="userSpaceOnUse" x="13" y="38" width="593" height="144" fill="black">
<rect fill="white" x="13" y="38" width="593" height="144"/>
<path d="M109.6 96.4V43H133.4V177H109.6V119.6H39.6V177H15.6V43H39.6V96.4H109.6ZM219.28 122.2L252.28 42.6H277.08L230.28 153.6C223.613 169.2 212.813 177 197.88 177H170.08V153.6H197.48C201.88 153.6 205.213 152.067 207.48 149L151.28 43H178.28L219.28 122.2ZM440.753 43V177H416.753V79.4L375.353 177H357.753L316.553 79.4V177H292.553V43H325.753L366.953 140.8L408.153 43H440.753ZM532.897 179.8C512.364 179.8 495.564 173.067 482.497 159.6C469.43 146.133 462.897 129.667 462.897 110.2C462.897 90.6 469.364 74.0667 482.297 60.6C495.364 47 512.23 40.2 532.897 40.2C553.697 40.2 570.564 46.9333 583.497 60.4C596.564 73.8667 603.097 90.4667 603.097 110.2C603.097 129.8 596.564 146.333 583.497 159.8C570.564 173.133 553.697 179.8 532.897 179.8ZM532.897 156.4C546.63 156.4 557.697 151.933 566.097 143C574.63 133.933 578.897 122.933 578.897 110C578.897 97.0667 574.63 86.1333 566.097 77.2C557.697 68.1333 546.63 63.6 532.897 63.6C519.297 63.6 508.23 68.1333 499.697 77.2C491.297 86.1333 487.097 97.0667 487.097 110C487.097 122.933 491.297 133.933 499.697 143C508.23 151.933 519.297 156.4 532.897 156.4Z"/>
</mask>
<path d="M109.6 96.4V43H133.4V177H109.6V119.6H39.6V177H15.6V43H39.6V96.4H109.6ZM219.28 122.2L252.28 42.6H277.08L230.28 153.6C223.613 169.2 212.813 177 197.88 177H170.08V153.6H197.48C201.88 153.6 205.213 152.067 207.48 149L151.28 43H178.28L219.28 122.2ZM440.753 43V177H416.753V79.4L375.353 177H357.753L316.553 79.4V177H292.553V43H325.753L366.953 140.8L408.153 43H440.753ZM532.897 179.8C512.364 179.8 495.564 173.067 482.497 159.6C469.43 146.133 462.897 129.667 462.897 110.2C462.897 90.6 469.364 74.0667 482.297 60.6C495.364 47 512.23 40.2 532.897 40.2C553.697 40.2 570.564 46.9333 583.497 60.4C596.564 73.8667 603.097 90.4667 603.097 110.2C603.097 129.8 596.564 146.333 583.497 159.8C570.564 173.133 553.697 179.8 532.897 179.8ZM532.897 156.4C546.63 156.4 557.697 151.933 566.097 143C574.63 133.933 578.897 122.933 578.897 110C578.897 97.0667 574.63 86.1333 566.097 77.2C557.697 68.1333 546.63 63.6 532.897 63.6C519.297 63.6 508.23 68.1333 499.697 77.2C491.297 86.1333 487.097 97.0667 487.097 110C487.097 122.933 491.297 133.933 499.697 143C508.23 151.933 519.297 156.4 532.897 156.4Z" fill="#A8EB12"/>
<path d="M109.6 96.4V98.4H111.6V96.4H109.6ZM109.6 43V41H107.6V43H109.6ZM133.4 43H135.4V41H133.4V43ZM133.4 177V179H135.4V177H133.4ZM109.6 177H107.6V179H109.6V177ZM109.6 119.6H111.6V117.6H109.6V119.6ZM39.6 119.6V117.6H37.6V119.6H39.6ZM39.6 177V179H41.6V177H39.6ZM15.6 177H13.6V179H15.6V177ZM15.6 43V41H13.6V43H15.6ZM39.6 43H41.6V41H39.6V43ZM39.6 96.4H37.6V98.4H39.6V96.4ZM111.6 96.4V43H107.6V96.4H111.6ZM109.6 45H133.4V41H109.6V45ZM131.4 43V177H135.4V43H131.4ZM133.4 175H109.6V179H133.4V175ZM111.6 177V119.6H107.6V177H111.6ZM109.6 117.6H39.6V121.6H109.6V117.6ZM37.6 119.6V177H41.6V119.6H37.6ZM39.6 175H15.6V179H39.6V175ZM17.6 177V43H13.6V177H17.6ZM15.6 45H39.6V41H15.6V45ZM37.6 43V96.4H41.6V43H37.6ZM39.6 98.4H109.6V94.4H39.6V98.4ZM219.28 122.2L217.504 123.119L219.48 126.938L221.127 122.966L219.28 122.2ZM252.28 42.6V40.6H250.944L250.432 41.8341L252.28 42.6ZM277.08 42.6L278.923 43.377L280.093 40.6H277.08V42.6ZM230.28 153.6L232.119 154.386L232.123 154.377L230.28 153.6ZM170.08 177H168.08V179H170.08V177ZM170.08 153.6V151.6H168.08V153.6H170.08ZM207.48 149L209.088 150.189L209.837 149.176L209.247 148.063L207.48 149ZM151.28 43V41H147.956L149.513 43.9368L151.28 43ZM178.28 43L180.056 42.0805L179.496 41H178.28V43ZM221.127 122.966L254.127 43.3659L250.432 41.8341L217.432 121.434L221.127 122.966ZM252.28 44.6H277.08V40.6H252.28V44.6ZM275.237 41.823L228.437 152.823L232.123 154.377L278.923 43.377L275.237 41.823ZM228.441 152.814C225.212 160.37 221.044 165.892 216.009 169.529C210.99 173.153 204.979 175 197.88 175V179C205.714 179 212.569 176.947 218.351 172.771C224.115 168.608 228.681 162.43 232.119 154.386L228.441 152.814ZM197.88 175H170.08V179H197.88V175ZM172.08 177V153.6H168.08V177H172.08ZM170.08 155.6H197.48V151.6H170.08V155.6ZM197.48 155.6C202.403 155.6 206.383 153.849 209.088 150.189L205.871 147.811C204.043 150.284 201.357 151.6 197.48 151.6V155.6ZM209.247 148.063L153.047 42.0631L149.513 43.9368L205.713 149.937L209.247 148.063ZM151.28 45H178.28V41H151.28V45ZM176.504 43.9195L217.504 123.119L221.056 121.281L180.056 42.0805L176.504 43.9195ZM440.753 43H442.753V41H440.753V43ZM440.753 177V179H442.753V177H440.753ZM416.753 177H414.753V179H416.753V177ZM416.753 79.4H418.753L414.912 78.619L416.753 79.4ZM375.353 177V179H376.677L377.194 177.781L375.353 177ZM357.753 177L355.911 177.778L356.426 179H357.753V177ZM316.553 79.4L318.396 78.6222L314.553 79.4H316.553ZM316.553 177V179H318.553V177H316.553ZM292.553 177H290.553V179H292.553V177ZM292.553 43V41H290.553V43H292.553ZM325.753 43L327.596 42.2235L327.081 41H325.753V43ZM366.953 140.8L365.11 141.576L366.953 145.952L368.796 141.576L366.953 140.8ZM408.153 43V41H406.825L406.31 42.2235L408.153 43ZM438.753 43V177H442.753V43H438.753ZM440.753 175H416.753V179H440.753V175ZM418.753 177V79.4H414.753V177H418.753ZM414.912 78.619L373.512 176.219L377.194 177.781L418.594 80.181L414.912 78.619ZM375.353 175H357.753V179H375.353V175ZM359.596 176.222L318.396 78.6222L314.711 80.1778L355.911 177.778L359.596 176.222ZM314.553 79.4V177H318.553V79.4H314.553ZM316.553 175H292.553V179H316.553V175ZM294.553 177V43H290.553V177H294.553ZM292.553 45H325.753V41H292.553V45ZM323.91 43.7764L365.11 141.576L368.796 140.024L327.596 42.2235L323.91 43.7764ZM368.796 141.576L409.996 43.7764L406.31 42.2235L365.11 140.024L368.796 141.576ZM408.153 45H440.753V41H408.153V45ZM482.497 159.6L481.061 160.993L482.497 159.6ZM482.297 60.6L480.855 59.2143L480.854 59.2146L482.297 60.6ZM583.497 60.4L582.054 61.7854L582.062 61.7927L583.497 60.4ZM583.497 159.8L582.062 158.407L582.061 158.407L583.497 159.8ZM566.097 143L564.641 141.629L564.64 141.63L566.097 143ZM566.097 77.2L564.63 78.5592L564.64 78.5704L564.651 78.5815L566.097 77.2ZM499.697 77.2L498.24 75.8293L498.24 75.8299L499.697 77.2ZM499.697 143L498.23 144.359L498.24 144.37L498.251 144.381L499.697 143ZM532.897 177.8C512.848 177.8 496.585 171.247 483.932 158.207L481.061 160.993C494.542 174.886 511.879 181.8 532.897 181.8V177.8ZM483.932 158.207C471.242 145.129 464.897 129.168 464.897 110.2H460.897C460.897 130.165 467.618 147.138 481.061 160.993L483.932 158.207ZM464.897 110.2C464.897 91.088 471.183 75.0595 483.739 61.9854L480.854 59.2146C467.544 73.0738 460.897 90.112 460.897 110.2H464.897ZM483.739 61.9856C496.39 48.8179 512.717 42.2 532.897 42.2V38.2C511.744 38.2 494.337 45.1821 480.855 59.2143L483.739 61.9856ZM532.897 42.2C553.221 42.2 569.543 48.7581 582.054 61.7854L584.939 59.0146C571.584 45.1086 554.173 38.2 532.897 38.2V42.2ZM582.062 61.7927C594.746 74.8654 601.097 90.9569 601.097 110.2H605.097C605.097 89.9764 598.381 72.8679 584.932 59.0073L582.062 61.7927ZM601.097 110.2C601.097 129.306 594.749 145.332 582.062 158.407L584.932 161.193C598.379 147.335 605.097 130.294 605.097 110.2H601.097ZM582.061 158.407C569.551 171.304 553.227 177.8 532.897 177.8V181.8C554.167 181.8 571.576 174.962 584.932 161.193L582.061 158.407ZM532.897 158.4C547.109 158.4 558.729 153.756 567.554 144.37L564.64 141.63C556.665 150.111 546.151 154.4 532.897 154.4V158.4ZM567.553 144.371C576.45 134.917 580.897 123.421 580.897 110H576.897C576.897 122.446 572.81 132.949 564.641 141.629L567.553 144.371ZM580.897 110C580.897 96.5788 576.45 85.1428 567.543 75.8185L564.651 78.5815C572.811 87.1238 576.897 97.5546 576.897 110H580.897ZM567.564 75.8408C558.741 66.3178 547.118 61.6 532.897 61.6V65.6C546.142 65.6 556.653 69.9489 564.63 78.5592L567.564 75.8408ZM532.897 61.6C518.802 61.6 507.189 66.3216 498.24 75.8293L501.153 78.5707C509.272 69.9451 519.792 65.6 532.897 65.6V61.6ZM498.24 75.8299C489.471 85.156 485.097 96.5882 485.097 110H489.097C489.097 97.5451 493.123 87.1107 501.154 78.57L498.24 75.8299ZM485.097 110C485.097 123.412 489.47 134.904 498.23 144.359L501.164 141.641C493.124 132.962 489.097 122.455 489.097 110H485.097ZM498.251 144.381C507.201 153.752 518.812 158.4 532.897 158.4V154.4C519.782 154.4 509.259 150.115 501.143 141.619L498.251 144.381Z" fill="black" mask="url(#path-1-outside-1_7_189)"/>
<mask id="path-3-outside-2_7_189" maskUnits="userSpaceOnUse" x="321" y="326" width="593" height="144" fill="black">
<rect fill="white" x="321" y="326" width="593" height="144"/>
<path d="M417.6 384.4V331H441.4V465H417.6V407.6H347.6V465H323.6V331H347.6V384.4H417.6ZM527.28 410.2L560.28 330.6H585.08L538.28 441.6C531.613 457.2 520.813 465 505.88 465H478.08V441.6H505.48C509.88 441.6 513.213 440.067 515.48 437L459.28 331H486.28L527.28 410.2ZM748.753 331V465H724.753V367.4L683.353 465H665.753L624.553 367.4V465H600.553V331H633.753L674.953 428.8L716.153 331H748.753ZM840.897 467.8C820.364 467.8 803.564 461.067 790.497 447.6C777.43 434.133 770.897 417.667 770.897 398.2C770.897 378.6 777.364 362.067 790.297 348.6C803.364 335 820.23 328.2 840.897 328.2C861.697 328.2 878.564 334.933 891.497 348.4C904.564 361.867 911.097 378.467 911.097 398.2C911.097 417.8 904.564 434.333 891.497 447.8C878.564 461.133 861.697 467.8 840.897 467.8ZM840.897 444.4C854.63 444.4 865.697 439.933 874.097 431C882.63 421.933 886.897 410.933 886.897 398C886.897 385.067 882.63 374.133 874.097 365.2C865.697 356.133 854.63 351.6 840.897 351.6C827.297 351.6 816.23 356.133 807.697 365.2C799.297 374.133 795.097 385.067 795.097 398C795.097 410.933 799.297 421.933 807.697 431C816.23 439.933 827.297 444.4 840.897 444.4Z"/>
</mask>
<path d="M417.6 384.4V331H441.4V465H417.6V407.6H347.6V465H323.6V331H347.6V384.4H417.6ZM527.28 410.2L560.28 330.6H585.08L538.28 441.6C531.613 457.2 520.813 465 505.88 465H478.08V441.6H505.48C509.88 441.6 513.213 440.067 515.48 437L459.28 331H486.28L527.28 410.2ZM748.753 331V465H724.753V367.4L683.353 465H665.753L624.553 367.4V465H600.553V331H633.753L674.953 428.8L716.153 331H748.753ZM840.897 467.8C820.364 467.8 803.564 461.067 790.497 447.6C777.43 434.133 770.897 417.667 770.897 398.2C770.897 378.6 777.364 362.067 790.297 348.6C803.364 335 820.23 328.2 840.897 328.2C861.697 328.2 878.564 334.933 891.497 348.4C904.564 361.867 911.097 378.467 911.097 398.2C911.097 417.8 904.564 434.333 891.497 447.8C878.564 461.133 861.697 467.8 840.897 467.8ZM840.897 444.4C854.63 444.4 865.697 439.933 874.097 431C882.63 421.933 886.897 410.933 886.897 398C886.897 385.067 882.63 374.133 874.097 365.2C865.697 356.133 854.63 351.6 840.897 351.6C827.297 351.6 816.23 356.133 807.697 365.2C799.297 374.133 795.097 385.067 795.097 398C795.097 410.933 799.297 421.933 807.697 431C816.23 439.933 827.297 444.4 840.897 444.4Z" fill="#A8EB12"/>
<path d="M417.6 384.4V386.4H419.6V384.4H417.6ZM417.6 331V329H415.6V331H417.6ZM441.4 331H443.4V329H441.4V331ZM441.4 465V467H443.4V465H441.4ZM417.6 465H415.6V467H417.6V465ZM417.6 407.6H419.6V405.6H417.6V407.6ZM347.6 407.6V405.6H345.6V407.6H347.6ZM347.6 465V467H349.6V465H347.6ZM323.6 465H321.6V467H323.6V465ZM323.6 331V329H321.6V331H323.6ZM347.6 331H349.6V329H347.6V331ZM347.6 384.4H345.6V386.4H347.6V384.4ZM419.6 384.4V331H415.6V384.4H419.6ZM417.6 333H441.4V329H417.6V333ZM439.4 331V465H443.4V331H439.4ZM441.4 463H417.6V467H441.4V463ZM419.6 465V407.6H415.6V465H419.6ZM417.6 405.6H347.6V409.6H417.6V405.6ZM345.6 407.6V465H349.6V407.6H345.6ZM347.6 463H323.6V467H347.6V463ZM325.6 465V331H321.6V465H325.6ZM323.6 333H347.6V329H323.6V333ZM345.6 331V384.4H349.6V331H345.6ZM347.6 386.4H417.6V382.4H347.6V386.4ZM527.28 410.2L525.504 411.119L527.48 414.938L529.127 410.966L527.28 410.2ZM560.28 330.6V328.6H558.944L558.432 329.834L560.28 330.6ZM585.08 330.6L586.923 331.377L588.093 328.6H585.08V330.6ZM538.28 441.6L540.119 442.386L540.123 442.377L538.28 441.6ZM478.08 465H476.08V467H478.08V465ZM478.08 441.6V439.6H476.08V441.6H478.08ZM515.48 437L517.088 438.189L517.837 437.176L517.247 436.063L515.48 437ZM459.28 331V329H455.956L457.513 331.937L459.28 331ZM486.28 331L488.056 330.081L487.496 329H486.28V331ZM529.127 410.966L562.127 331.366L558.432 329.834L525.432 409.434L529.127 410.966ZM560.28 332.6H585.08V328.6H560.28V332.6ZM583.237 329.823L536.437 440.823L540.123 442.377L586.923 331.377L583.237 329.823ZM536.441 440.814C533.212 448.37 529.044 453.892 524.009 457.529C518.99 461.153 512.979 463 505.88 463V467C513.714 467 520.569 464.947 526.351 460.771C532.115 456.608 536.681 450.43 540.119 442.386L536.441 440.814ZM505.88 463H478.08V467H505.88V463ZM480.08 465V441.6H476.08V465H480.08ZM478.08 443.6H505.48V439.6H478.08V443.6ZM505.48 443.6C510.403 443.6 514.383 441.849 517.088 438.189L513.871 435.811C512.043 438.284 509.357 439.6 505.48 439.6V443.6ZM517.247 436.063L461.047 330.063L457.513 331.937L513.713 437.937L517.247 436.063ZM459.28 333H486.28V329H459.28V333ZM484.504 331.919L525.504 411.119L529.056 409.281L488.056 330.081L484.504 331.919ZM748.753 331H750.753V329H748.753V331ZM748.753 465V467H750.753V465H748.753ZM724.753 465H722.753V467H724.753V465ZM724.753 367.4H726.753L722.912 366.619L724.753 367.4ZM683.353 465V467H684.677L685.194 465.781L683.353 465ZM665.753 465L663.911 465.778L664.426 467H665.753V465ZM624.553 367.4L626.396 366.622L622.553 367.4H624.553ZM624.553 465V467H626.553V465H624.553ZM600.553 465H598.553V467H600.553V465ZM600.553 331V329H598.553V331H600.553ZM633.753 331L635.596 330.224L635.081 329H633.753V331ZM674.953 428.8L673.11 429.576L674.953 433.952L676.796 429.576L674.953 428.8ZM716.153 331V329H714.825L714.31 330.224L716.153 331ZM746.753 331V465H750.753V331H746.753ZM748.753 463H724.753V467H748.753V463ZM726.753 465V367.4H722.753V465H726.753ZM722.912 366.619L681.512 464.219L685.194 465.781L726.594 368.181L722.912 366.619ZM683.353 463H665.753V467H683.353V463ZM667.596 464.222L626.396 366.622L622.711 368.178L663.911 465.778L667.596 464.222ZM622.553 367.4V465H626.553V367.4H622.553ZM624.553 463H600.553V467H624.553V463ZM602.553 465V331H598.553V465H602.553ZM600.553 333H633.753V329H600.553V333ZM631.91 331.776L673.11 429.576L676.796 428.024L635.596 330.224L631.91 331.776ZM676.796 429.576L717.996 331.776L714.31 330.224L673.11 428.024L676.796 429.576ZM716.153 333H748.753V329H716.153V333ZM790.497 447.6L789.061 448.993L790.497 447.6ZM790.297 348.6L788.855 347.214L788.854 347.215L790.297 348.6ZM891.497 348.4L890.054 349.785L890.062 349.793L891.497 348.4ZM891.497 447.8L890.062 446.407L890.061 446.407L891.497 447.8ZM874.097 431L872.641 429.629L872.64 429.63L874.097 431ZM874.097 365.2L872.63 366.559L872.64 366.57L872.651 366.581L874.097 365.2ZM807.697 365.2L806.24 363.829L806.24 363.83L807.697 365.2ZM807.697 431L806.23 432.359L806.24 432.37L806.251 432.381L807.697 431ZM840.897 465.8C820.848 465.8 804.585 459.247 791.932 446.207L789.061 448.993C802.542 462.886 819.879 469.8 840.897 469.8V465.8ZM791.932 446.207C779.242 433.129 772.897 417.168 772.897 398.2H768.897C768.897 418.165 775.618 435.138 789.061 448.993L791.932 446.207ZM772.897 398.2C772.897 379.088 779.183 363.06 791.739 349.985L788.854 347.215C775.544 361.074 768.897 378.112 768.897 398.2H772.897ZM791.739 349.986C804.39 336.818 820.717 330.2 840.897 330.2V326.2C819.744 326.2 802.337 333.182 788.855 347.214L791.739 349.986ZM840.897 330.2C861.221 330.2 877.543 336.758 890.054 349.785L892.939 347.015C879.584 333.109 862.173 326.2 840.897 326.2V330.2ZM890.062 349.793C902.746 362.865 909.097 378.957 909.097 398.2H913.097C913.097 377.976 906.381 360.868 892.932 347.007L890.062 349.793ZM909.097 398.2C909.097 417.306 902.749 433.332 890.062 446.407L892.932 449.193C906.379 435.335 913.097 418.294 913.097 398.2H909.097ZM890.061 446.407C877.551 459.304 861.227 465.8 840.897 465.8V469.8C862.167 469.8 879.576 462.962 892.932 449.193L890.061 446.407ZM840.897 446.4C855.109 446.4 866.729 441.756 875.554 432.37L872.64 429.63C864.665 438.111 854.151 442.4 840.897 442.4V446.4ZM875.553 432.371C884.45 422.917 888.897 411.421 888.897 398H884.897C884.897 410.446 880.81 420.949 872.641 429.629L875.553 432.371ZM888.897 398C888.897 384.579 884.45 373.143 875.543 363.819L872.651 366.581C880.811 375.124 884.897 385.555 884.897 398H888.897ZM875.564 363.841C866.741 354.318 855.118 349.6 840.897 349.6V353.6C854.142 353.6 864.653 357.949 872.63 366.559L875.564 363.841ZM840.897 349.6C826.802 349.6 815.189 354.322 806.24 363.829L809.153 366.571C817.272 357.945 827.792 353.6 840.897 353.6V349.6ZM806.24 363.83C797.471 373.156 793.097 384.588 793.097 398H797.097C797.097 385.545 801.123 375.111 809.154 366.57L806.24 363.83ZM793.097 398C793.097 411.412 797.47 422.904 806.23 432.359L809.164 429.641C801.124 420.962 797.097 410.455 797.097 398H793.097ZM806.251 432.381C815.201 441.752 826.812 446.4 840.897 446.4V442.4C827.782 442.4 817.259 438.115 809.143 429.619L806.251 432.381Z" fill="black" mask="url(#path-3-outside-2_7_189)"/>
<mask id="path-5-outside-3_7_189" maskUnits="userSpaceOnUse" x="167" y="182" width="593" height="144" fill="black">
<rect fill="white" x="167" y="182" width="593" height="144"/>
<path d="M263.6 240.4V187H287.4V321H263.6V263.6H193.6V321H169.6V187H193.6V240.4H263.6ZM373.28 266.2L406.28 186.6H431.08L384.28 297.6C377.613 313.2 366.813 321 351.88 321H324.08V297.6H351.48C355.88 297.6 359.213 296.067 361.48 293L305.28 187H332.28L373.28 266.2ZM594.753 187V321H570.753V223.4L529.353 321H511.753L470.553 223.4V321H446.553V187H479.753L520.953 284.8L562.153 187H594.753ZM686.897 323.8C666.364 323.8 649.564 317.067 636.497 303.6C623.43 290.133 616.897 273.667 616.897 254.2C616.897 234.6 623.364 218.067 636.297 204.6C649.364 191 666.23 184.2 686.897 184.2C707.697 184.2 724.564 190.933 737.497 204.4C750.564 217.867 757.097 234.467 757.097 254.2C757.097 273.8 750.564 290.333 737.497 303.8C724.564 317.133 707.697 323.8 686.897 323.8ZM686.897 300.4C700.63 300.4 711.697 295.933 720.097 287C728.63 277.933 732.897 266.933 732.897 254C732.897 241.067 728.63 230.133 720.097 221.2C711.697 212.133 700.63 207.6 686.897 207.6C673.297 207.6 662.23 212.133 653.697 221.2C645.297 230.133 641.097 241.067 641.097 254C641.097 266.933 645.297 277.933 653.697 287C662.23 295.933 673.297 300.4 686.897 300.4Z"/>
</mask>
<path d="M263.6 240.4V187H287.4V321H263.6V263.6H193.6V321H169.6V187H193.6V240.4H263.6ZM373.28 266.2L406.28 186.6H431.08L384.28 297.6C377.613 313.2 366.813 321 351.88 321H324.08V297.6H351.48C355.88 297.6 359.213 296.067 361.48 293L305.28 187H332.28L373.28 266.2ZM594.753 187V321H570.753V223.4L529.353 321H511.753L470.553 223.4V321H446.553V187H479.753L520.953 284.8L562.153 187H594.753ZM686.897 323.8C666.364 323.8 649.564 317.067 636.497 303.6C623.43 290.133 616.897 273.667 616.897 254.2C616.897 234.6 623.364 218.067 636.297 204.6C649.364 191 666.23 184.2 686.897 184.2C707.697 184.2 724.564 190.933 737.497 204.4C750.564 217.867 757.097 234.467 757.097 254.2C757.097 273.8 750.564 290.333 737.497 303.8C724.564 317.133 707.697 323.8 686.897 323.8ZM686.897 300.4C700.63 300.4 711.697 295.933 720.097 287C728.63 277.933 732.897 266.933 732.897 254C732.897 241.067 728.63 230.133 720.097 221.2C711.697 212.133 700.63 207.6 686.897 207.6C673.297 207.6 662.23 212.133 653.697 221.2C645.297 230.133 641.097 241.067 641.097 254C641.097 266.933 645.297 277.933 653.697 287C662.23 295.933 673.297 300.4 686.897 300.4Z" fill="#A8EB12"/>
<path d="M263.6 240.4V242.4H265.6V240.4H263.6ZM263.6 187V185H261.6V187H263.6ZM287.4 187H289.4V185H287.4V187ZM287.4 321V323H289.4V321H287.4ZM263.6 321H261.6V323H263.6V321ZM263.6 263.6H265.6V261.6H263.6V263.6ZM193.6 263.6V261.6H191.6V263.6H193.6ZM193.6 321V323H195.6V321H193.6ZM169.6 321H167.6V323H169.6V321ZM169.6 187V185H167.6V187H169.6ZM193.6 187H195.6V185H193.6V187ZM193.6 240.4H191.6V242.4H193.6V240.4ZM265.6 240.4V187H261.6V240.4H265.6ZM263.6 189H287.4V185H263.6V189ZM285.4 187V321H289.4V187H285.4ZM287.4 319H263.6V323H287.4V319ZM265.6 321V263.6H261.6V321H265.6ZM263.6 261.6H193.6V265.6H263.6V261.6ZM191.6 263.6V321H195.6V263.6H191.6ZM193.6 319H169.6V323H193.6V319ZM171.6 321V187H167.6V321H171.6ZM169.6 189H193.6V185H169.6V189ZM191.6 187V240.4H195.6V187H191.6ZM193.6 242.4H263.6V238.4H193.6V242.4ZM373.28 266.2L371.504 267.119L373.48 270.938L375.127 266.966L373.28 266.2ZM406.28 186.6V184.6H404.944L404.432 185.834L406.28 186.6ZM431.08 186.6L432.923 187.377L434.093 184.6H431.08V186.6ZM384.28 297.6L386.119 298.386L386.123 298.377L384.28 297.6ZM324.08 321H322.08V323H324.08V321ZM324.08 297.6V295.6H322.08V297.6H324.08ZM361.48 293L363.088 294.189L363.837 293.176L363.247 292.063L361.48 293ZM305.28 187V185H301.956L303.513 187.937L305.28 187ZM332.28 187L334.056 186.081L333.496 185H332.28V187ZM375.127 266.966L408.127 187.366L404.432 185.834L371.432 265.434L375.127 266.966ZM406.28 188.6H431.08V184.6H406.28V188.6ZM429.237 185.823L382.437 296.823L386.123 298.377L432.923 187.377L429.237 185.823ZM382.441 296.814C379.212 304.37 375.044 309.892 370.009 313.529C364.99 317.153 358.979 319 351.88 319V323C359.714 323 366.569 320.947 372.351 316.771C378.115 312.608 382.681 306.43 386.119 298.386L382.441 296.814ZM351.88 319H324.08V323H351.88V319ZM326.08 321V297.6H322.08V321H326.08ZM324.08 299.6H351.48V295.6H324.08V299.6ZM351.48 299.6C356.403 299.6 360.383 297.849 363.088 294.189L359.871 291.811C358.043 294.284 355.357 295.6 351.48 295.6V299.6ZM363.247 292.063L307.047 186.063L303.513 187.937L359.713 293.937L363.247 292.063ZM305.28 189H332.28V185H305.28V189ZM330.504 187.919L371.504 267.119L375.056 265.281L334.056 186.081L330.504 187.919ZM594.753 187H596.753V185H594.753V187ZM594.753 321V323H596.753V321H594.753ZM570.753 321H568.753V323H570.753V321ZM570.753 223.4H572.753L568.912 222.619L570.753 223.4ZM529.353 321V323H530.677L531.194 321.781L529.353 321ZM511.753 321L509.911 321.778L510.426 323H511.753V321ZM470.553 223.4L472.396 222.622L468.553 223.4H470.553ZM470.553 321V323H472.553V321H470.553ZM446.553 321H444.553V323H446.553V321ZM446.553 187V185H444.553V187H446.553ZM479.753 187L481.596 186.224L481.081 185H479.753V187ZM520.953 284.8L519.11 285.576L520.953 289.952L522.796 285.576L520.953 284.8ZM562.153 187V185H560.825L560.31 186.224L562.153 187ZM592.753 187V321H596.753V187H592.753ZM594.753 319H570.753V323H594.753V319ZM572.753 321V223.4H568.753V321H572.753ZM568.912 222.619L527.512 320.219L531.194 321.781L572.594 224.181L568.912 222.619ZM529.353 319H511.753V323H529.353V319ZM513.596 320.222L472.396 222.622L468.711 224.178L509.911 321.778L513.596 320.222ZM468.553 223.4V321H472.553V223.4H468.553ZM470.553 319H446.553V323H470.553V319ZM448.553 321V187H444.553V321H448.553ZM446.553 189H479.753V185H446.553V189ZM477.91 187.776L519.11 285.576L522.796 284.024L481.596 186.224L477.91 187.776ZM522.796 285.576L563.996 187.776L560.31 186.224L519.11 284.024L522.796 285.576ZM562.153 189H594.753V185H562.153V189ZM636.497 303.6L635.061 304.993L636.497 303.6ZM636.297 204.6L634.855 203.214L634.854 203.215L636.297 204.6ZM737.497 204.4L736.054 205.785L736.062 205.793L737.497 204.4ZM737.497 303.8L736.062 302.407L736.061 302.407L737.497 303.8ZM720.097 287L718.641 285.629L718.64 285.63L720.097 287ZM720.097 221.2L718.63 222.559L718.64 222.57L718.651 222.581L720.097 221.2ZM653.697 221.2L652.24 219.829L652.24 219.83L653.697 221.2ZM653.697 287L652.23 288.359L652.24 288.37L652.251 288.381L653.697 287ZM686.897 321.8C666.848 321.8 650.585 315.247 637.932 302.207L635.061 304.993C648.542 318.886 665.879 325.8 686.897 325.8V321.8ZM637.932 302.207C625.242 289.129 618.897 273.168 618.897 254.2H614.897C614.897 274.165 621.618 291.138 635.061 304.993L637.932 302.207ZM618.897 254.2C618.897 235.088 625.183 219.06 637.739 205.985L634.854 203.215C621.544 217.074 614.897 234.112 614.897 254.2H618.897ZM637.739 205.986C650.39 192.818 666.717 186.2 686.897 186.2V182.2C665.744 182.2 648.337 189.182 634.855 203.214L637.739 205.986ZM686.897 186.2C707.221 186.2 723.543 192.758 736.054 205.785L738.939 203.015C725.584 189.109 708.173 182.2 686.897 182.2V186.2ZM736.062 205.793C748.746 218.865 755.097 234.957 755.097 254.2H759.097C759.097 233.976 752.381 216.868 738.932 203.007L736.062 205.793ZM755.097 254.2C755.097 273.306 748.749 289.332 736.062 302.407L738.932 305.193C752.379 291.335 759.097 274.294 759.097 254.2H755.097ZM736.061 302.407C723.551 315.304 707.227 321.8 686.897 321.8V325.8C708.167 325.8 725.576 318.962 738.932 305.193L736.061 302.407ZM686.897 302.4C701.109 302.4 712.729 297.756 721.554 288.37L718.64 285.63C710.665 294.111 700.151 298.4 686.897 298.4V302.4ZM721.553 288.371C730.45 278.917 734.897 267.421 734.897 254H730.897C730.897 266.446 726.81 276.949 718.641 285.629L721.553 288.371ZM734.897 254C734.897 240.579 730.45 229.143 721.543 219.819L718.651 222.581C726.811 231.124 730.897 241.555 730.897 254H734.897ZM721.564 219.841C712.741 210.318 701.118 205.6 686.897 205.6V209.6C700.142 209.6 710.653 213.949 718.63 222.559L721.564 219.841ZM686.897 205.6C672.802 205.6 661.189 210.322 652.24 219.829L655.153 222.571C663.272 213.945 673.792 209.6 686.897 209.6V205.6ZM652.24 219.83C643.471 229.156 639.097 240.588 639.097 254H643.097C643.097 241.545 647.123 231.111 655.154 222.57L652.24 219.83ZM639.097 254C639.097 267.412 643.47 278.904 652.23 288.359L655.164 285.641C647.124 276.962 643.097 266.455 643.097 254H639.097ZM652.251 288.381C661.201 297.752 672.812 302.4 686.897 302.4V298.4C673.782 298.4 663.259 294.115 655.143 285.619L652.251 288.381Z" fill="black" mask="url(#path-5-outside-3_7_189)"/>
<mask id="path-7-outside-4_7_189" maskUnits="userSpaceOnUse" x="167" y="470" width="593" height="144" fill="black">
<rect fill="white" x="167" y="470" width="593" height="144"/>
<path d="M263.6 528.4V475H287.4V609H263.6V551.6H193.6V609H169.6V475H193.6V528.4H263.6ZM373.28 554.2L406.28 474.6H431.08L384.28 585.6C377.613 601.2 366.813 609 351.88 609H324.08V585.6H351.48C355.88 585.6 359.213 584.067 361.48 581L305.28 475H332.28L373.28 554.2ZM594.753 475V609H570.753V511.4L529.353 609H511.753L470.553 511.4V609H446.553V475H479.753L520.953 572.8L562.153 475H594.753ZM686.897 611.8C666.364 611.8 649.564 605.067 636.497 591.6C623.43 578.133 616.897 561.667 616.897 542.2C616.897 522.6 623.364 506.067 636.297 492.6C649.364 479 666.23 472.2 686.897 472.2C707.697 472.2 724.564 478.933 737.497 492.4C750.564 505.867 757.097 522.467 757.097 542.2C757.097 561.8 750.564 578.333 737.497 591.8C724.564 605.133 707.697 611.8 686.897 611.8ZM686.897 588.4C700.63 588.4 711.697 583.933 720.097 575C728.63 565.933 732.897 554.933 732.897 542C732.897 529.067 728.63 518.133 720.097 509.2C711.697 500.133 700.63 495.6 686.897 495.6C673.297 495.6 662.23 500.133 653.697 509.2C645.297 518.133 641.097 529.067 641.097 542C641.097 554.933 645.297 565.933 653.697 575C662.23 583.933 673.297 588.4 686.897 588.4Z"/>
</mask>
<path d="M263.6 528.4V475H287.4V609H263.6V551.6H193.6V609H169.6V475H193.6V528.4H263.6ZM373.28 554.2L406.28 474.6H431.08L384.28 585.6C377.613 601.2 366.813 609 351.88 609H324.08V585.6H351.48C355.88 585.6 359.213 584.067 361.48 581L305.28 475H332.28L373.28 554.2ZM594.753 475V609H570.753V511.4L529.353 609H511.753L470.553 511.4V609H446.553V475H479.753L520.953 572.8L562.153 475H594.753ZM686.897 611.8C666.364 611.8 649.564 605.067 636.497 591.6C623.43 578.133 616.897 561.667 616.897 542.2C616.897 522.6 623.364 506.067 636.297 492.6C649.364 479 666.23 472.2 686.897 472.2C707.697 472.2 724.564 478.933 737.497 492.4C750.564 505.867 757.097 522.467 757.097 542.2C757.097 561.8 750.564 578.333 737.497 591.8C724.564 605.133 707.697 611.8 686.897 611.8ZM686.897 588.4C700.63 588.4 711.697 583.933 720.097 575C728.63 565.933 732.897 554.933 732.897 542C732.897 529.067 728.63 518.133 720.097 509.2C711.697 500.133 700.63 495.6 686.897 495.6C673.297 495.6 662.23 500.133 653.697 509.2C645.297 518.133 641.097 529.067 641.097 542C641.097 554.933 645.297 565.933 653.697 575C662.23 583.933 673.297 588.4 686.897 588.4Z" fill="#A8EB12"/>
<path d="M263.6 528.4V530.4H265.6V528.4H263.6ZM263.6 475V473H261.6V475H263.6ZM287.4 475H289.4V473H287.4V475ZM287.4 609V611H289.4V609H287.4ZM263.6 609H261.6V611H263.6V609ZM263.6 551.6H265.6V549.6H263.6V551.6ZM193.6 551.6V549.6H191.6V551.6H193.6ZM193.6 609V611H195.6V609H193.6ZM169.6 609H167.6V611H169.6V609ZM169.6 475V473H167.6V475H169.6ZM193.6 475H195.6V473H193.6V475ZM193.6 528.4H191.6V530.4H193.6V528.4ZM265.6 528.4V475H261.6V528.4H265.6ZM263.6 477H287.4V473H263.6V477ZM285.4 475V609H289.4V475H285.4ZM287.4 607H263.6V611H287.4V607ZM265.6 609V551.6H261.6V609H265.6ZM263.6 549.6H193.6V553.6H263.6V549.6ZM191.6 551.6V609H195.6V551.6H191.6ZM193.6 607H169.6V611H193.6V607ZM171.6 609V475H167.6V609H171.6ZM169.6 477H193.6V473H169.6V477ZM191.6 475V528.4H195.6V475H191.6ZM193.6 530.4H263.6V526.4H193.6V530.4ZM373.28 554.2L371.504 555.119L373.48 558.938L375.127 554.966L373.28 554.2ZM406.28 474.6V472.6H404.944L404.432 473.834L406.28 474.6ZM431.08 474.6L432.923 475.377L434.093 472.6H431.08V474.6ZM384.28 585.6L386.119 586.386L386.123 586.377L384.28 585.6ZM324.08 609H322.08V611H324.08V609ZM324.08 585.6V583.6H322.08V585.6H324.08ZM361.48 581L363.088 582.189L363.837 581.176L363.247 580.063L361.48 581ZM305.28 475V473H301.956L303.513 475.937L305.28 475ZM332.28 475L334.056 474.081L333.496 473H332.28V475ZM375.127 554.966L408.127 475.366L404.432 473.834L371.432 553.434L375.127 554.966ZM406.28 476.6H431.08V472.6H406.28V476.6ZM429.237 473.823L382.437 584.823L386.123 586.377L432.923 475.377L429.237 473.823ZM382.441 584.814C379.212 592.37 375.044 597.892 370.009 601.529C364.99 605.153 358.979 607 351.88 607V611C359.714 611 366.569 608.947 372.351 604.771C378.115 600.608 382.681 594.43 386.119 586.386L382.441 584.814ZM351.88 607H324.08V611H351.88V607ZM326.08 609V585.6H322.08V609H326.08ZM324.08 587.6H351.48V583.6H324.08V587.6ZM351.48 587.6C356.403 587.6 360.383 585.849 363.088 582.189L359.871 579.811C358.043 582.284 355.357 583.6 351.48 583.6V587.6ZM363.247 580.063L307.047 474.063L303.513 475.937L359.713 581.937L363.247 580.063ZM305.28 477H332.28V473H305.28V477ZM330.504 475.919L371.504 555.119L375.056 553.281L334.056 474.081L330.504 475.919ZM594.753 475H596.753V473H594.753V475ZM594.753 609V611H596.753V609H594.753ZM570.753 609H568.753V611H570.753V609ZM570.753 511.4H572.753L568.912 510.619L570.753 511.4ZM529.353 609V611H530.677L531.194 609.781L529.353 609ZM511.753 609L509.911 609.778L510.426 611H511.753V609ZM470.553 511.4L472.396 510.622L468.553 511.4H470.553ZM470.553 609V611H472.553V609H470.553ZM446.553 609H444.553V611H446.553V609ZM446.553 475V473H444.553V475H446.553ZM479.753 475L481.596 474.224L481.081 473H479.753V475ZM520.953 572.8L519.11 573.576L520.953 577.952L522.796 573.576L520.953 572.8ZM562.153 475V473H560.825L560.31 474.224L562.153 475ZM592.753 475V609H596.753V475H592.753ZM594.753 607H570.753V611H594.753V607ZM572.753 609V511.4H568.753V609H572.753ZM568.912 510.619L527.512 608.219L531.194 609.781L572.594 512.181L568.912 510.619ZM529.353 607H511.753V611H529.353V607ZM513.596 608.222L472.396 510.622L468.711 512.178L509.911 609.778L513.596 608.222ZM468.553 511.4V609H472.553V511.4H468.553ZM470.553 607H446.553V611H470.553V607ZM448.553 609V475H444.553V609H448.553ZM446.553 477H479.753V473H446.553V477ZM477.91 475.776L519.11 573.576L522.796 572.024L481.596 474.224L477.91 475.776ZM522.796 573.576L563.996 475.776L560.31 474.224L519.11 572.024L522.796 573.576ZM562.153 477H594.753V473H562.153V477ZM636.497 591.6L635.061 592.993L636.497 591.6ZM636.297 492.6L634.855 491.214L634.854 491.215L636.297 492.6ZM737.497 492.4L736.054 493.785L736.062 493.793L737.497 492.4ZM737.497 591.8L736.062 590.407L736.061 590.407L737.497 591.8ZM720.097 575L718.641 573.629L718.64 573.63L720.097 575ZM720.097 509.2L718.63 510.559L718.64 510.57L718.651 510.581L720.097 509.2ZM653.697 509.2L652.24 507.829L652.24 507.83L653.697 509.2ZM653.697 575L652.23 576.359L652.24 576.37L652.251 576.381L653.697 575ZM686.897 609.8C666.848 609.8 650.585 603.247 637.932 590.207L635.061 592.993C648.542 606.886 665.879 613.8 686.897 613.8V609.8ZM637.932 590.207C625.242 577.129 618.897 561.168 618.897 542.2H614.897C614.897 562.165 621.618 579.138 635.061 592.993L637.932 590.207ZM618.897 542.2C618.897 523.088 625.183 507.06 637.739 493.985L634.854 491.215C621.544 505.074 614.897 522.112 614.897 542.2H618.897ZM637.739 493.986C650.39 480.818 666.717 474.2 686.897 474.2V470.2C665.744 470.2 648.337 477.182 634.855 491.214L637.739 493.986ZM686.897 474.2C707.221 474.2 723.543 480.758 736.054 493.785L738.939 491.015C725.584 477.109 708.173 470.2 686.897 470.2V474.2ZM736.062 493.793C748.746 506.865 755.097 522.957 755.097 542.2H759.097C759.097 521.976 752.381 504.868 738.932 491.007L736.062 493.793ZM755.097 542.2C755.097 561.306 748.749 577.332 736.062 590.407L738.932 593.193C752.379 579.335 759.097 562.294 759.097 542.2H755.097ZM736.061 590.407C723.551 603.304 707.227 609.8 686.897 609.8V613.8C708.167 613.8 725.576 606.962 738.932 593.193L736.061 590.407ZM686.897 590.4C701.109 590.4 712.729 585.756 721.554 576.37L718.64 573.63C710.665 582.111 700.151 586.4 686.897 586.4V590.4ZM721.553 576.371C730.45 566.917 734.897 555.421 734.897 542H730.897C730.897 554.446 726.81 564.949 718.641 573.629L721.553 576.371ZM734.897 542C734.897 528.579 730.45 517.143 721.543 507.819L718.651 510.581C726.811 519.124 730.897 529.555 730.897 542H734.897ZM721.564 507.841C712.741 498.318 701.118 493.6 686.897 493.6V497.6C700.142 497.6 710.653 501.949 718.63 510.559L721.564 507.841ZM686.897 493.6C672.802 493.6 661.189 498.322 652.24 507.829L655.153 510.571C663.272 501.945 673.792 497.6 686.897 497.6V493.6ZM652.24 507.83C643.471 517.156 639.097 528.588 639.097 542H643.097C643.097 529.545 647.123 519.111 655.154 510.57L652.24 507.83ZM639.097 542C639.097 555.412 643.47 566.904 652.23 576.359L655.164 573.641C647.124 564.962 643.097 554.455 643.097 542H639.097ZM652.251 576.381C661.201 585.752 672.812 590.4 686.897 590.4V586.4C673.782 586.4 663.259 582.115 655.143 573.619L652.251 576.381Z" fill="black" mask="url(#path-7-outside-4_7_189)"/>
<mask id="path-9-outside-5_7_189" maskUnits="userSpaceOnUse" x="13" y="615" width="593" height="144" fill="black">
<rect fill="white" x="13" y="615" width="593" height="144"/>
<path d="M109.6 673.4V620H133.4V754H109.6V696.6H39.6V754H15.6V620H39.6V673.4H109.6ZM219.28 699.2L252.28 619.6H277.08L230.28 730.6C223.613 746.2 212.813 754 197.88 754H170.08V730.6H197.48C201.88 730.6 205.213 729.067 207.48 726L151.28 620H178.28L219.28 699.2ZM440.753 620V754H416.753V656.4L375.353 754H357.753L316.553 656.4V754H292.553V620H325.753L366.953 717.8L408.153 620H440.753ZM532.897 756.8C512.364 756.8 495.564 750.067 482.497 736.6C469.43 723.133 462.897 706.667 462.897 687.2C462.897 667.6 469.364 651.067 482.297 637.6C495.364 624 512.23 617.2 532.897 617.2C553.697 617.2 570.564 623.933 583.497 637.4C596.564 650.867 603.097 667.467 603.097 687.2C603.097 706.8 596.564 723.333 583.497 736.8C570.564 750.133 553.697 756.8 532.897 756.8ZM532.897 733.4C546.63 733.4 557.697 728.933 566.097 720C574.63 710.933 578.897 699.933 578.897 687C578.897 674.067 574.63 663.133 566.097 654.2C557.697 645.133 546.63 640.6 532.897 640.6C519.297 640.6 508.23 645.133 499.697 654.2C491.297 663.133 487.097 674.067 487.097 687C487.097 699.933 491.297 710.933 499.697 720C508.23 728.933 519.297 733.4 532.897 733.4Z"/>
</mask>
<path d="M109.6 673.4V620H133.4V754H109.6V696.6H39.6V754H15.6V620H39.6V673.4H109.6ZM219.28 699.2L252.28 619.6H277.08L230.28 730.6C223.613 746.2 212.813 754 197.88 754H170.08V730.6H197.48C201.88 730.6 205.213 729.067 207.48 726L151.28 620H178.28L219.28 699.2ZM440.753 620V754H416.753V656.4L375.353 754H357.753L316.553 656.4V754H292.553V620H325.753L366.953 717.8L408.153 620H440.753ZM532.897 756.8C512.364 756.8 495.564 750.067 482.497 736.6C469.43 723.133 462.897 706.667 462.897 687.2C462.897 667.6 469.364 651.067 482.297 637.6C495.364 624 512.23 617.2 532.897 617.2C553.697 617.2 570.564 623.933 583.497 637.4C596.564 650.867 603.097 667.467 603.097 687.2C603.097 706.8 596.564 723.333 583.497 736.8C570.564 750.133 553.697 756.8 532.897 756.8ZM532.897 733.4C546.63 733.4 557.697 728.933 566.097 720C574.63 710.933 578.897 699.933 578.897 687C578.897 674.067 574.63 663.133 566.097 654.2C557.697 645.133 546.63 640.6 532.897 640.6C519.297 640.6 508.23 645.133 499.697 654.2C491.297 663.133 487.097 674.067 487.097 687C487.097 699.933 491.297 710.933 499.697 720C508.23 728.933 519.297 733.4 532.897 733.4Z" fill="#A8EB12"/>
<path d="M109.6 673.4V675.4H111.6V673.4H109.6ZM109.6 620V618H107.6V620H109.6ZM133.4 620H135.4V618H133.4V620ZM133.4 754V756H135.4V754H133.4ZM109.6 754H107.6V756H109.6V754ZM109.6 696.6H111.6V694.6H109.6V696.6ZM39.6 696.6V694.6H37.6V696.6H39.6ZM39.6 754V756H41.6V754H39.6ZM15.6 754H13.6V756H15.6V754ZM15.6 620V618H13.6V620H15.6ZM39.6 620H41.6V618H39.6V620ZM39.6 673.4H37.6V675.4H39.6V673.4ZM111.6 673.4V620H107.6V673.4H111.6ZM109.6 622H133.4V618H109.6V622ZM131.4 620V754H135.4V620H131.4ZM133.4 752H109.6V756H133.4V752ZM111.6 754V696.6H107.6V754H111.6ZM109.6 694.6H39.6V698.6H109.6V694.6ZM37.6 696.6V754H41.6V696.6H37.6ZM39.6 752H15.6V756H39.6V752ZM17.6 754V620H13.6V754H17.6ZM15.6 622H39.6V618H15.6V622ZM37.6 620V673.4H41.6V620H37.6ZM39.6 675.4H109.6V671.4H39.6V675.4ZM219.28 699.2L217.504 700.119L219.48 703.938L221.127 699.966L219.28 699.2ZM252.28 619.6V617.6H250.944L250.432 618.834L252.28 619.6ZM277.08 619.6L278.923 620.377L280.093 617.6H277.08V619.6ZM230.28 730.6L232.119 731.386L232.123 731.377L230.28 730.6ZM170.08 754H168.08V756H170.08V754ZM170.08 730.6V728.6H168.08V730.6H170.08ZM207.48 726L209.088 727.189L209.837 726.176L209.247 725.063L207.48 726ZM151.28 620V618H147.956L149.513 620.937L151.28 620ZM178.28 620L180.056 619.081L179.496 618H178.28V620ZM221.127 699.966L254.127 620.366L250.432 618.834L217.432 698.434L221.127 699.966ZM252.28 621.6H277.08V617.6H252.28V621.6ZM275.237 618.823L228.437 729.823L232.123 731.377L278.923 620.377L275.237 618.823ZM228.441 729.814C225.212 737.37 221.044 742.892 216.009 746.529C210.99 750.153 204.979 752 197.88 752V756C205.714 756 212.569 753.947 218.351 749.771C224.115 745.608 228.681 739.43 232.119 731.386L228.441 729.814ZM197.88 752H170.08V756H197.88V752ZM172.08 754V730.6H168.08V754H172.08ZM170.08 732.6H197.48V728.6H170.08V732.6ZM197.48 732.6C202.403 732.6 206.383 730.849 209.088 727.189L205.871 724.811C204.043 727.284 201.357 728.6 197.48 728.6V732.6ZM209.247 725.063L153.047 619.063L149.513 620.937L205.713 726.937L209.247 725.063ZM151.28 622H178.28V618H151.28V622ZM176.504 620.919L217.504 700.119L221.056 698.281L180.056 619.081L176.504 620.919ZM440.753 620H442.753V618H440.753V620ZM440.753 754V756H442.753V754H440.753ZM416.753 754H414.753V756H416.753V754ZM416.753 656.4H418.753L414.912 655.619L416.753 656.4ZM375.353 754V756H376.677L377.194 754.781L375.353 754ZM357.753 754L355.911 754.778L356.426 756H357.753V754ZM316.553 656.4L318.396 655.622L314.553 656.4H316.553ZM316.553 754V756H318.553V754H316.553ZM292.553 754H290.553V756H292.553V754ZM292.553 620V618H290.553V620H292.553ZM325.753 620L327.596 619.224L327.081 618H325.753V620ZM366.953 717.8L365.11 718.576L366.953 722.952L368.796 718.576L366.953 717.8ZM408.153 620V618H406.825L406.31 619.224L408.153 620ZM438.753 620V754H442.753V620H438.753ZM440.753 752H416.753V756H440.753V752ZM418.753 754V656.4H414.753V754H418.753ZM414.912 655.619L373.512 753.219L377.194 754.781L418.594 657.181L414.912 655.619ZM375.353 752H357.753V756H375.353V752ZM359.596 753.222L318.396 655.622L314.711 657.178L355.911 754.778L359.596 753.222ZM314.553 656.4V754H318.553V656.4H314.553ZM316.553 752H292.553V756H316.553V752ZM294.553 754V620H290.553V754H294.553ZM292.553 622H325.753V618H292.553V622ZM323.91 620.776L365.11 718.576L368.796 717.024L327.596 619.224L323.91 620.776ZM368.796 718.576L409.996 620.776L406.31 619.224L365.11 717.024L368.796 718.576ZM408.153 622H440.753V618H408.153V622ZM482.497 736.6L481.061 737.993L482.497 736.6ZM482.297 637.6L480.855 636.214L480.854 636.215L482.297 637.6ZM583.497 637.4L582.054 638.785L582.062 638.793L583.497 637.4ZM583.497 736.8L582.062 735.407L582.061 735.407L583.497 736.8ZM566.097 720L564.641 718.629L564.64 718.63L566.097 720ZM566.097 654.2L564.63 655.559L564.64 655.57L564.651 655.581L566.097 654.2ZM499.697 654.2L498.24 652.829L498.24 652.83L499.697 654.2ZM499.697 720L498.23 721.359L498.24 721.37L498.251 721.381L499.697 720ZM532.897 754.8C512.848 754.8 496.585 748.247 483.932 735.207L481.061 737.993C494.542 751.886 511.879 758.8 532.897 758.8V754.8ZM483.932 735.207C471.242 722.129 464.897 706.168 464.897 687.2H460.897C460.897 707.165 467.618 724.138 481.061 737.993L483.932 735.207ZM464.897 687.2C464.897 668.088 471.183 652.06 483.739 638.985L480.854 636.215C467.544 650.074 460.897 667.112 460.897 687.2H464.897ZM483.739 638.986C496.39 625.818 512.717 619.2 532.897 619.2V615.2C511.744 615.2 494.337 622.182 480.855 636.214L483.739 638.986ZM532.897 619.2C553.221 619.2 569.543 625.758 582.054 638.785L584.939 636.015C571.584 622.109 554.173 615.2 532.897 615.2V619.2ZM582.062 638.793C594.746 651.865 601.097 667.957 601.097 687.2H605.097C605.097 666.976 598.381 649.868 584.932 636.007L582.062 638.793ZM601.097 687.2C601.097 706.306 594.749 722.332 582.062 735.407L584.932 738.193C598.379 724.335 605.097 707.294 605.097 687.2H601.097ZM582.061 735.407C569.551 748.304 553.227 754.8 532.897 754.8V758.8C554.167 758.8 571.576 751.962 584.932 738.193L582.061 735.407ZM532.897 735.4C547.109 735.4 558.729 730.756 567.554 721.37L564.64 718.63C556.665 727.111 546.151 731.4 532.897 731.4V735.4ZM567.553 721.371C576.45 711.917 580.897 700.421 580.897 687H576.897C576.897 699.446 572.81 709.949 564.641 718.629L567.553 721.371ZM580.897 687C580.897 673.579 576.45 662.143 567.543 652.819L564.651 655.581C572.811 664.124 576.897 674.555 576.897 687H580.897ZM567.564 652.841C558.741 643.318 547.118 638.6 532.897 638.6V642.6C546.142 642.6 556.653 646.949 564.63 655.559L567.564 652.841ZM532.897 638.6C518.802 638.6 507.189 643.322 498.24 652.829L501.153 655.571C509.272 646.945 519.792 642.6 532.897 642.6V638.6ZM498.24 652.83C489.471 662.156 485.097 673.588 485.097 687H489.097C489.097 674.545 493.123 664.111 501.154 655.57L498.24 652.83ZM485.097 687C485.097 700.412 489.47 711.904 498.23 721.359L501.164 718.641C493.124 709.962 489.097 699.455 489.097 687H485.097ZM498.251 721.381C507.201 730.752 518.812 735.4 532.897 735.4V731.4C519.782 731.4 509.259 727.115 501.143 718.619L498.251 721.381Z" fill="black" mask="url(#path-9-outside-5_7_189)"/>
</g>
<defs>
<filter id="filter0_d_7_189" x="9.60001" y="38.2" width="907.497" height="728.6" filterUnits="userSpaceOnUse" color-interpolation-filters="sRGB">
<feFlood flood-opacity="0" result="BackgroundImageFix"/>
<feColorMatrix in="SourceAlpha" type="matrix" values="0 0 0 0 0 0 0 0 0 0 0 0 0 0 0 0 0 0 127 0" result="hardAlpha"/>
<feOffset dy="4"/>
<feGaussianBlur stdDeviation="2"/>
<feComposite in2="hardAlpha" operator="out"/>
<feColorMatrix type="matrix" values="0 0 0 0 0 0 0 0 0 0 0 0 0 0 0 0 0 0 0.25 0"/>
<feBlend mode="normal" in2="BackgroundImageFix" result="effect1_dropShadow_7_189"/>
<feBlend mode="normal" in="SourceGraphic" in2="effect1_dropShadow_7_189" result="shape"/>
</filter>
</defs>
</svg>
