<svg width="1534" height="1313" viewBox="0 0 1534 1313" fill="none" xmlns="http://www.w3.org/2000/svg">
<path d="M1 1207.8L344.14 995.659C382.536 971.922 401.235 926.126 390.426 882.298L337.317 666.944C325.586 619.376 348.645 570.071 392.674 548.581L536.161 478.546C558.135 467.82 575.627 449.695 585.565 427.354L662.474 254.463C681.955 210.67 728.842 185.863 776.007 194.393L1196.96 270.531C1242.04 278.685 1287.15 256.379 1308.04 215.603L1405.79 24.7506C1426.94 -16.5441 1472.89 -38.834 1518.41 -29.8859L1732.63 12.2191" stroke="white" stroke-width="1.4" stroke-linejoin="round"/>
<path d="M49.1845 1260L392.324 1047.86C430.72 1024.12 449.419 978.326 438.611 934.497L385.502 719.144C373.771 671.575 396.83 622.271 440.858 600.781L584.345 530.746C606.319 520.02 623.812 501.895 633.75 479.554L710.659 306.663C730.139 262.87 777.026 238.063 824.191 246.593L1245.15 322.731C1290.23 330.885 1335.34 308.579 1356.22 267.803L1453.97 76.9505C1475.13 35.6558 1521.07 13.3659 1566.6 22.314L1780.82 64.419" stroke="white" stroke-width="1.4" stroke-linejoin="round"/>
<path d="M97.369 1312.2L440.509 1100.06C478.905 1076.32 497.604 1030.53 486.795 986.697L433.686 771.343C421.955 723.775 445.014 674.471 489.043 652.981L632.53 582.945C654.504 572.22 671.996 554.095 681.934 531.754L758.843 358.863C778.324 315.07 825.211 290.262 872.376 298.793L1293.33 374.931C1338.41 383.085 1383.52 360.778 1404.41 320.003L1502.16 129.15C1523.31 87.8557 1569.26 65.5658 1614.78 74.5139L1829 116.619" stroke="white" stroke-width="1.4" stroke-linejoin="round"/>
</svg>
